<?xml version="1.0" encoding="UTF-8"?> <svg xmlns="http://www.w3.org/2000/svg" width="299" height="210" viewBox="0 0 299 210" fill="none"><rect width="298.667" height="209.25" rx="16" fill="url(#paint0_linear_2827_4956)"></rect><path d="M146.284 112.661C146.284 113.319 146.038 113.881 145.546 114.347C145.054 114.814 144.482 115.05 143.825 115.05H138.635C137.977 115.05 137.415 114.814 136.948 114.347C136.481 113.881 136.246 113.319 136.246 112.661V97.6382H127.261V113.434C127.261 116.571 128.185 118.99 130.032 120.697C131.879 122.403 134.348 123.257 137.435 123.257H146.279C149.04 123.257 151.228 122.343 152.844 120.521C154.461 118.694 155.264 116.335 155.264 113.434V97.6382H146.279V112.661H146.284Z" fill="#1CE783"></path><path d="M117.995 99.9219C116.123 98.401 113.669 97.6381 110.627 97.6381H104.87C104.027 97.6381 103.304 97.7184 102.691 97.884C102.084 98.0497 101.778 98.1551 101.778 98.2003V85.9883H92.7983V123.262H101.783V108.239C101.783 107.586 102.029 107.009 102.521 106.517C103.013 106.025 103.585 105.779 104.242 105.779H109.437C110.09 105.779 110.652 106.025 111.124 106.517C111.591 107.009 111.827 107.581 111.827 108.239V123.262H120.811V107.049C120.806 103.817 119.867 101.443 117.995 99.9219Z" fill="#1CE783"></path><path d="M196.894 97.6382V112.661C196.894 113.319 196.658 113.881 196.191 114.347C195.724 114.814 195.162 115.05 194.505 115.05H189.31C188.652 115.05 188.08 114.814 187.588 114.347C187.096 113.881 186.85 113.319 186.85 112.661V97.6382H177.936V113.434C177.936 116.571 178.849 118.99 180.671 120.697C182.498 122.403 184.978 123.257 188.11 123.257H196.884C199.689 123.257 201.888 122.358 203.484 120.556C205.075 118.754 205.868 116.38 205.868 113.434V97.6382H196.894Z" fill="#1CE783"></path><path d="M171.064 85.9883H162.08V123.262H171.064V85.9883Z" fill="#1CE783"></path><defs><linearGradient id="paint0_linear_2827_4956" x1="456.295" y1="145.985" x2="355.221" y2="-109.718" gradientUnits="userSpaceOnUse"><stop stop-color="#183949"></stop><stop offset="1" stop-color="#040405"></stop></linearGradient></defs></svg> 